<mxfile host="app.diagrams.net" modified="2023-10-27T11:53:32.340Z" agent="Mozilla/5.0 (Windows NT 10.0; Win64; x64) AppleWebKit/537.36 (KHTML, like Gecko) Chrome/118.0.0.0 Safari/537.36" version="22.0.8" etag="t52Hbu4CiGLZhkjecC6g" type="github">
  <diagram name="第 1 页" id="sKVKIKAfT5i1lr5p1Fda">
    <mxGraphModel>
      <root>
        <mxCell id="0" />
        <mxCell id="1" parent="0" />
      </root>
    </mxGraphModel>
  </diagram>
</mxfile>
